<svg xmlns="http://www.w3.org/2000/svg" width="780" height="320" role="img" aria-labelledby="overviewTitle overviewDesc">
  <title id="overviewTitle">argocd-lint overview</title>
  <desc id="overviewDesc">Git sources flow through argocd-lint before reaching Argo CD</desc>
  <defs>
    <linearGradient id="bg" x1="0" y1="0" x2="1" y2="1">
      <stop offset="0%" stop-color="#0f172a" />
      <stop offset="100%" stop-color="#111b2e" />
    </linearGradient>
    <marker id="arrow" viewBox="0 0 10 10" refX="8" refY="5" markerWidth="6" markerHeight="6" orient="auto-start-reverse">
      <path d="M0 0 L10 5 L0 10 Z" fill="#38bdf8" />
    </marker>
  </defs>
  <rect width="780" height="320" fill="url(#bg)" rx="24" />
  <g fill="none" stroke="#38bdf8" stroke-width="3.5" stroke-linecap="round" stroke-linejoin="round">
    <rect x="42" y="54" width="190" height="136" rx="18" />
    <rect x="295" y="54" width="190" height="136" rx="18" />
    <rect x="548" y="54" width="190" height="136" rx="18" />
    <path d="M232 122 H288" marker-end="url(#arrow)" />
    <path d="M485 122 H541" marker-end="url(#arrow)" />
  </g>
  <g font-family="'Inter', 'Helvetica', sans-serif" fill="#e2e8f0">
    <text font-size="20" font-weight="600" text-anchor="middle">
      <tspan x="137" y="94">Git repo</tspan>
      <tspan x="137" y="118" font-size="14">Application &amp;</tspan>
      <tspan x="137" y="138" font-size="14">ApplicationSet manifests</tspan>
    </text>
    <text font-size="20" font-weight="600" text-anchor="middle">
      <tspan x="390" y="94">argocd-lint</tspan>
      <tspan x="390" y="118" font-size="14">schema validation</tspan>
      <tspan x="390" y="138" font-size="14">built-in + Rego rules</tspan>
      <tspan x="390" y="158" font-size="14">curated bundles</tspan>
    </text>
    <text font-size="20" font-weight="600" text-anchor="middle">
      <tspan x="643" y="94">Argo CD</tspan>
      <tspan x="643" y="118" font-size="14">repo-server CMP</tspan>
      <tspan x="643" y="138" font-size="14">predictable syncs</tspan>
    </text>
  </g>
  <g font-family="'Inter', 'Helvetica', sans-serif" font-size="15" fill="#94a3b8">
    <text x="48" y="230">Run it locally, in CI pipelines, or inside repo-server.</text>
    <text x="48" y="256">Extend with curated bundles or drop in your own Rego policies.</text>
  </g>
</svg>
